<svg width="98" height="92" viewBox="0 0 98 92" fill="none" xmlns="http://www.w3.org/2000/svg">
<path d="M92.9157 44.0127V8.1505C92.9157 3.65631 89.2594 0 84.7652 0H13.0408C8.54661 0 4.8903 3.65631 4.8903 8.1505V32.602C2.19411 32.602 0 34.7961 0 37.4923V86.3953C0 89.0914 2.19411 91.2856 4.8903 91.2856H40.7525C43.4487 91.2856 45.6428 89.0914 45.6428 86.3953H59.3046C60.8418 86.3953 62.2584 85.6943 63.1908 84.4734C64.1232 83.2524 64.4264 81.7006 64.0222 80.2188L60.8174 68.4642H70.0943V86.3953C70.0943 89.0914 72.2884 91.2856 74.9846 91.2856H92.9157C95.6119 91.2856 97.806 89.0914 97.806 86.3953V48.903C97.806 46.2068 95.6119 44.0127 92.9157 44.0127ZM42.3826 86.3953C42.3826 87.2934 41.6507 88.0254 40.7525 88.0254H4.8903C3.99211 88.0254 3.2602 87.2934 3.2602 86.3953V83.1351H42.3826V86.3953ZM42.3826 79.8749H3.2602V44.0127H42.3826V79.8749ZM42.3826 40.7525H3.2602V37.4923C3.2602 36.5941 3.99211 35.8622 4.8903 35.8622H40.7525C41.6507 35.8622 42.3826 36.5941 42.3826 37.4923V40.7525ZM60.8777 81.0762C61.013 81.5702 60.9119 82.0869 60.6006 82.4944C60.2892 82.902 59.8181 83.1351 59.3046 83.1351H45.6428V79.8749H60.55L60.8777 81.0762ZM45.6428 76.6147V68.4642H57.4382L59.6616 76.6147H45.6428ZM70.0943 65.204H45.6428V55.4234H70.0943V65.204ZM70.0943 48.903V52.1632H45.6428V37.4923C45.6428 34.7961 43.4487 32.602 40.7525 32.602H8.1505V8.1505C8.1505 5.45431 10.3446 3.2602 13.0408 3.2602H84.7652C87.4614 3.2602 89.6555 5.45431 89.6555 8.1505V44.0127H74.9846C72.2884 44.0127 70.0943 46.2068 70.0943 48.903ZM94.5458 86.3953C94.5458 87.2934 93.8139 88.0254 92.9157 88.0254H74.9846C74.0864 88.0254 73.3545 87.2934 73.3545 86.3953V83.1351H94.5458V86.3953ZM94.5458 79.8749H73.3545V55.4234H94.5458V79.8749ZM94.5458 52.1632H73.3545V48.903C73.3545 48.0048 74.0864 47.2729 74.9846 47.2729H92.9157C93.8139 47.2729 94.5458 48.0048 94.5458 48.903V52.1632Z" fill="#5C5C5C"/>
</svg>
