<svg width="89" height="90" viewBox="0 0 89 90" fill="none" xmlns="http://www.w3.org/2000/svg">
<path d="M33.3364 28.0698V24.6851V5.37742C33.3364 3.17844 35.1177 1.39005 37.3222 1.39005H82.7848C84.9875 1.39005 86.7705 3.17802 86.7708 5.37728V5.37742V46.5932C86.7708 48.7936 84.9867 50.579 82.785 50.579H69.7514L76.917 83.1141L33.3364 28.0698ZM33.3364 28.0698L35.5364 25.4976L37.5144 23.1849L37.5149 23.1843C38.2614 22.3105 39.2498 21.7642 40.3212 21.5335L41.3082 21.3211V20.3115V9.36375M33.3364 28.0698L41.3082 9.36375M41.3082 9.36375H78.7986V42.6067H41.3084V37.8734V34.4884L39.1084 37.061L37.8772 38.5007L41.3082 9.36375ZM50.5319 50.579L43.3652 83.1161L43.3652 83.1163C42.8807 85.3179 44.2724 87.4947 46.4744 87.9802L46.4753 87.9804C48.6582 88.4599 50.8529 87.0785 51.335 84.8722C51.3351 84.8718 51.3352 84.8714 51.3353 84.871L58.8878 50.5792H61.3949L68.9479 84.8734L68.9479 84.8737C69.3679 86.7786 71.0562 88.0764 72.9303 88.0748L50.5319 50.579ZM50.5319 50.579H37.3222C35.1187 50.579 33.3364 48.7932 33.3364 46.5932V41.5036V40.365L34.4701 40.2591C35.7932 40.1354 37.0129 39.5087 37.8764 38.5017L50.5319 50.579ZM73.8114 87.9802L73.8109 87.9803C73.513 88.0458 73.2169 88.0747 72.9318 88.0748L73.8114 87.9802ZM73.8114 87.9802C76.0126 87.4949 77.4052 85.3188 76.9174 83.1161L73.8114 87.9802Z" stroke="#5C5C5C" stroke-width="2.5"/>
<path d="M61.0537 18.6225C60.8381 18.079 60.2268 17.8122 59.6837 18.0273L43.5652 23.7165C42.0859 22.5711 39.9516 22.7758 38.718 24.2105L33.6034 30.1833L29.0684 26.2959C29.0982 26.6169 29.1662 26.9288 29.1662 27.2582V35.6974L31.6893 37.8593C33.1867 39.1416 35.4265 38.9435 36.6785 37.4752L42.7673 30.3551L47.6779 27.4823L60.6013 19.9211C61.0482 19.6635 61.2462 19.1131 61.0537 18.6225Z" fill="#5C5C5C"/>
<path d="M19.2106 20.1368H16.1732C13.8476 20.1368 11.8026 21.2672 10.5027 22.9901L1.17916 31.5741C-0.27359 32.8682 -0.405356 35.1097 0.902866 36.5712L8.50964 45.0617C9.8065 46.5138 12.0514 46.6422 13.504 45.3372C14.9604 44.0319 15.0834 41.7962 13.7784 40.3416L8.53515 34.4866L15.9825 27.8224L11.6451 33.7154L15.888 38.4525C18.2325 41.0724 18.0115 45.0979 15.3927 47.4442C13.6048 49.047 11.1649 49.4231 9.04963 48.6839C9.04963 48.6839 9.08249 65.0514 9.08249 82.5799C9.08249 84.9244 10.9828 86.8249 13.3275 86.8249C15.6697 86.8249 17.5725 84.9244 17.5725 82.5799C17.5725 65.0568 17.5725 75.0565 17.5725 57.2803H20.404C20.404 75.0435 20.404 65.0514 20.404 82.5799C20.404 83.8039 20.0627 84.9373 19.5186 85.9406C20.2309 86.4885 21.1172 86.8249 22.0833 86.8249C24.4292 86.8249 26.3295 84.9244 26.3295 82.5799C26.3295 65.0568 26.3349 72.4026 26.3349 27.259C26.3353 23.3254 23.1465 20.1368 19.2106 20.1368Z" fill="#5C5C5C"/>
<path d="M13.91 17.5887C15.0451 18.1787 16.3194 18.5448 17.6883 18.5448C19.0606 18.5448 20.3349 18.1787 21.4733 17.5877C24.1303 16.2111 25.9617 13.4706 25.9617 10.2721C25.9617 5.7029 22.2576 2 17.6881 2C13.1193 2 9.41602 5.7029 9.41602 10.2721C9.41619 13.4724 11.2496 16.2139 13.91 17.5887Z" fill="#5C5C5C"/>
</svg>
